<svg width="41" height="41" fill="none" xmlns="http://www.w3.org/2000/svg"><g clip-path="url(#clip0)" fill="#000" stroke="#000" stroke-width=".5"><path d="M34.235.217H5.875C2.636.217 0 2.845 0 6.077v28.28c0 3.231 2.636 5.86 5.876 5.86h28.36c3.24 0 5.875-2.629 5.875-5.86V6.077c0-3.232-2.636-5.86-5.876-5.86zm3.526 34.14a3.525 3.525 0 01-3.526 3.516H5.875a3.525 3.525 0 01-3.525-3.516V6.077A3.525 3.525 0 015.876 2.56h28.36a3.525 3.525 0 013.525 3.515v28.281z"/><path d="M18.88 16.701c0-2.585-2.108-4.687-4.7-4.687H7.13V28.42h7.05c2.592 0 4.7-2.103 4.7-4.688a4.67 4.67 0 00-1.596-3.515A4.67 4.67 0 0018.88 16.7zm-2.35 7.031a2.35 2.35 0 01-2.35 2.344h-4.7V21.39h4.7a2.35 2.35 0 012.35 2.343zm-7.05-4.687v-4.688h4.7a2.35 2.35 0 012.35 2.344 2.35 2.35 0 01-2.35 2.344h-4.7zm17.626-2.344c-3.24 0-5.875 2.629-5.875 5.86 0 3.23 2.635 5.859 5.875 5.859a5.9 5.9 0 005.09-2.929l-2.035-1.174a3.53 3.53 0 01-6.378-.585h9.199v-1.171c0-3.231-2.636-5.86-5.876-5.86zm-3.324 4.688a3.53 3.53 0 016.648 0h-6.648zm-1.376-9.375h9.4v2.343h-9.4v-2.343z"/></g><defs><clipPath id="clip0"><path fill="#fff" transform="translate(0 .217)" d="M0 0h40.111v40H0z"/></clipPath></defs></svg>